<?xml version="1.0" encoding="UTF-8"?>
<svg width="1200pt" height="1200pt" version="1.1" viewBox="0 0 1200 1200" xmlns="http://www.w3.org/2000/svg">
 <g>
  <rect width="1200" height="1200" fill="#e5e5d9"/>
  <path d="m927.47 364.91c-28.25-36.633-70.23-61.844-117.55-71.762-84.723-19.836-170.21 8.3828-211.45 73.27-40.441-64.887-125.19-93.105-209.91-74.035-84.723 18.332-171.75 91.602-161.06 242.74 15.262 151.14 151.14 297.71 363.36 405.34 0.76562 0.76562 0.76562 0.76562 1.5352 0.76562 1.5352 0.76562 3.0391 0.76562 5.3438 0.76562 2.3008 0 4.5742-0.76562 5.3438-0.76562 0.76562 0 0.76562-0.76562 1.5352-0.76562 215.23-108.4 352.65-254.96 367.91-405.34 5.3438-67.926-10.688-126.73-45.047-170.21zm-86.258 346.53c-45.047 49.625-95.41 80.914-119.09 90.836-25.949 10.688 17.562-21.371 62.582-70.996 45.047-50.363 93.906-150.35 109.93-135.86 15.293 14.496-8.3828 66.422-53.43 116.02zm86.258-180.13c-3.0391 11.453-12.191 19.07-21.371 16.797-9.1523-2.3008-10.688-12.223-7.6445-23.676 3.0391-11.453 8.3828-19.836 18.332-17.562 8.4141 1.5352 13.758 12.988 10.688 24.441z" fill="#333"/>
 </g>
</svg>
