<svg width="790" height="1320" viewBox="0 0 790 1320" fill="none" xmlns="http://www.w3.org/2000/svg">
<g filter="url(#filter0_d_50_2)">
<path d="M786 927.523C786 1029.49 744.805 1127.29 671.479 1199.39C598.152 1271.49 498.7 1312 395 1312C291.3 1312 191.848 1271.49 118.521 1199.39C45.1946 1127.29 4.00008 1029.49 4.00006 927.523L395 927.523L786 927.523Z" fill="#E7E6DB"/>
</g>
<path d="M4.00006 384.477H786V927.523H4.00006V384.477Z" fill="#E7E6DB"/>
<g filter="url(#filter1_i_50_2)">
<path d="M4.00005 384.477C4.00005 282.507 45.1946 184.714 118.521 112.611C191.848 40.5072 291.3 -7.62371e-05 395 -7.62371e-05C498.7 -7.62371e-05 598.152 40.5072 671.479 112.611C744.805 184.714 786 282.507 786 384.477L395 384.477L4.00005 384.477Z" fill="#E7E6DB"/>
</g>
<path d="M65.5128 1006.14C61.9428 1006.14 58.5994 1005.57 55.4828 1004.44C52.4228 1003.36 49.8444 1001.57 47.7478 999.08C45.7078 996.587 44.4328 993.215 43.9228 988.965C43.9228 988.625 43.8944 988.285 43.8378 987.945C43.8378 987.548 43.8378 987.152 43.8378 986.755C43.8378 983.185 44.6028 979.502 46.1328 975.705C47.6628 971.852 49.7594 968.055 52.4228 964.315C55.1428 960.575 58.2878 957.062 61.8578 953.775C66.0511 949.865 70.6978 946.408 75.7978 943.405C80.8978 940.402 86.0261 938.192 91.1828 936.775C89.4261 936.492 87.8394 936.152 86.4228 935.755C85.0061 935.358 84.1844 934.877 83.9578 934.31C83.8444 934.027 83.9011 933.857 84.1278 933.8C84.2411 933.743 84.4111 933.715 84.6378 933.715C84.6944 933.715 85.2611 933.857 86.3378 934.14C87.4711 934.367 88.8311 934.622 90.4178 934.905C92.0044 935.132 93.5061 935.245 94.9228 935.245C94.9794 934.792 95.2344 934.48 95.6878 934.31C96.1978 934.083 96.7928 933.97 97.4728 933.97C98.5494 933.97 99.7111 934.168 100.958 934.565C102.261 934.905 103.168 935.302 103.678 935.755C103.848 935.925 103.933 936.123 103.933 936.35C103.933 936.86 103.111 937.172 101.468 937.285C101.071 937.342 100.646 937.398 100.193 937.455C99.7394 937.455 99.2578 937.427 98.7478 937.37C98.6344 937.37 98.4644 937.37 98.2378 937.37C98.0111 937.37 97.7561 937.342 97.4728 937.285C93.6194 938.078 89.6528 939.41 85.5728 941.28C81.5494 943.093 77.6394 945.332 73.8428 947.995C70.1028 950.602 66.6744 953.492 63.5578 956.665C59.0811 961.142 55.4828 965.958 52.7628 971.115C50.0428 976.215 48.6828 981.088 48.6828 985.735C48.6828 986.075 48.6828 986.443 48.6828 986.84C48.6828 987.237 48.7111 987.633 48.7678 988.03C49.1644 991.543 50.1844 994.32 51.8278 996.36C53.5278 998.457 55.6244 999.93 58.1178 1000.78C60.6678 1001.69 63.4161 1002.14 66.3628 1002.14C69.3661 1002.14 72.4261 1001.8 75.5428 1001.12C78.6594 1000.44 81.6628 999.562 84.5528 998.485C87.4994 997.465 90.0778 996.445 92.2878 995.425C97.8978 992.762 103.253 989.673 108.353 986.16C113.509 982.59 118.043 978.992 121.953 975.365C123.596 973.892 125.466 971.993 127.563 969.67C129.716 967.347 131.898 964.797 134.108 962.02C136.318 959.243 138.358 956.382 140.228 953.435C142.098 950.488 143.599 947.627 144.733 944.85C145.923 942.017 146.518 939.438 146.518 937.115C146.518 934.338 145.526 932.95 143.543 932.95C142.126 932.95 140.341 933.687 138.188 935.16C136.034 936.577 133.654 938.787 131.048 941.79C129.744 943.263 128.299 945.105 126.713 947.315C125.183 949.525 123.851 951.792 122.718 954.115C122.661 954.342 122.491 954.71 122.208 955.22C121.981 955.73 121.726 956.297 121.443 956.92C121.216 957.487 121.018 958.082 120.848 958.705C120.734 959.272 120.706 959.753 120.763 960.15C120.763 960.83 121.216 961.17 122.123 961.17H123.228C123.738 961.17 123.993 961.34 123.993 961.68C124.049 961.85 123.766 962.105 123.143 962.445C122.576 962.728 121.953 963.012 121.273 963.295C120.649 963.522 120.224 963.635 119.998 963.635C118.694 963.635 117.759 963.21 117.193 962.36C116.683 961.51 116.428 960.632 116.428 959.725C116.428 958.082 116.938 956.127 117.958 953.86C118.978 951.593 120.309 949.242 121.953 946.805C123.653 944.368 125.466 942.102 127.393 940.005C130.283 936.888 133.031 934.593 135.638 933.12C138.301 931.647 140.596 930.91 142.523 930.91C144.506 930.91 146.008 931.562 147.028 932.865C148.104 934.168 148.643 935.953 148.643 938.22C148.643 940.827 148.076 943.603 146.943 946.55C145.866 949.44 144.421 952.358 142.608 955.305C140.794 958.252 138.811 961.085 136.658 963.805C134.504 966.525 132.323 969.047 130.113 971.37C127.959 973.637 126.004 975.592 124.248 977.235C120.224 980.862 115.549 984.602 110.223 988.455C104.896 992.252 99.3428 995.623 93.5628 998.57C90.9561 999.93 88.0661 1001.18 84.8928 1002.31C81.7761 1003.44 78.5461 1004.35 75.2028 1005.03C71.9161 1005.77 68.6861 1006.14 65.5128 1006.14ZM157.135 996.36C156.115 996.473 155.378 996.303 154.925 995.85C154.528 995.397 154.33 994.802 154.33 994.065C154.33 993.328 154.471 992.478 154.755 991.515C155.095 990.552 155.463 989.617 155.86 988.71C156.256 987.747 156.653 986.812 157.05 985.905C157.503 984.942 157.843 984.092 158.07 983.355C158.693 981.598 159.231 979.87 159.685 978.17C160.195 976.47 160.45 975.025 160.45 973.835C160.45 972.532 160.11 971.738 159.43 971.455C158.636 971.228 158.183 970.803 158.07 970.18V969.925C158.07 969.472 158.381 969.245 159.005 969.245C159.345 969.245 159.628 969.273 159.855 969.33C160.308 969.387 160.79 969.528 161.3 969.755C161.866 969.925 162.405 970.18 162.915 970.52C163.311 970.747 163.68 971.002 164.02 971.285C164.416 971.512 164.728 971.852 164.955 972.305C165.238 972.758 165.38 973.353 165.38 974.09C165.38 974.77 165.266 975.478 165.04 976.215C164.643 977.462 164.161 978.85 163.595 980.38C163.028 981.853 162.376 983.355 161.64 984.885C161.47 985.282 161.215 985.877 160.875 986.67C160.591 987.407 160.195 988.455 159.685 989.815C162.008 987.095 164.36 984.432 166.74 981.825C169.176 979.218 171.528 976.867 173.795 974.77C176.118 972.673 178.243 971.002 180.17 969.755C182.096 968.452 183.74 967.743 185.1 967.63C185.666 967.573 186.205 967.715 186.715 968.055C187.281 968.395 187.565 968.99 187.565 969.84C187.565 970.18 187.536 970.463 187.48 970.69C187.423 971.087 187.168 971.285 186.715 971.285C186.318 971.285 186.063 971.115 185.95 970.775V970.52C185.043 970.577 183.683 971.228 181.87 972.475C180.056 973.722 178.016 975.308 175.75 977.235C173.483 979.105 171.245 981.088 169.035 983.185C166.825 985.282 164.841 987.265 163.085 989.135C161.385 991.005 160.195 992.478 159.515 993.555C159.288 993.895 159.061 994.235 158.835 994.575C158.665 994.858 158.495 995.142 158.325 995.425C157.928 995.935 157.531 996.247 157.135 996.36ZM229.112 995.935C227.412 995.935 225.854 995.51 224.437 994.66C223.077 993.753 222.397 992.138 222.397 989.815C222.397 988.965 222.51 988.087 222.737 987.18C222.964 986.217 223.219 985.282 223.502 984.375C222.539 985.338 221.349 986.472 219.932 987.775C218.515 989.022 216.957 990.24 215.257 991.43C213.614 992.62 211.942 993.612 210.242 994.405C208.599 995.142 207.04 995.51 205.567 995.51C203.754 995.51 202.28 994.858 201.147 993.555C200.354 992.705 199.957 991.6 199.957 990.24C199.957 988.597 200.524 986.783 201.657 984.8C202.847 982.76 204.434 980.748 206.417 978.765C208.457 976.782 210.752 974.968 213.302 973.325C215.909 971.682 218.6 970.378 221.377 969.415C224.38 968.338 227.044 967.8 229.367 967.8C233.447 967.8 235.487 969.557 235.487 973.07C235.487 973.297 235.459 973.58 235.402 973.92C235.402 974.203 235.374 974.515 235.317 974.855C235.034 975.988 234.609 976.753 234.042 977.15C233.985 977.207 233.844 977.292 233.617 977.405C233.39 977.462 233.192 977.377 233.022 977.15C232.852 976.867 232.824 976.47 232.937 975.96C233.107 975.337 233.192 974.798 233.192 974.345C233.192 972.758 232.314 971.965 230.557 971.965C229.594 971.965 228.375 972.163 226.902 972.56C225.429 972.957 223.842 973.495 222.142 974.175C220.499 974.798 218.912 975.478 217.382 976.215C215.909 976.952 214.662 977.688 213.642 978.425C211.035 980.295 208.74 982.363 206.757 984.63C204.83 986.84 203.725 988.767 203.442 990.41C203.385 990.58 203.357 990.75 203.357 990.92C203.357 991.09 203.357 991.232 203.357 991.345C203.357 992.195 203.527 992.762 203.867 993.045C204.264 993.328 204.717 993.47 205.227 993.47C206.19 993.47 207.295 993.187 208.542 992.62C209.789 991.997 210.95 991.317 212.027 990.58C213.16 989.843 213.954 989.277 214.407 988.88C216.164 987.35 218.147 985.707 220.357 983.95C222.624 982.137 224.635 980.465 226.392 978.935C226.732 978.765 227.157 978.68 227.667 978.68C228.574 978.68 229.282 978.878 229.792 979.275C230.019 979.445 230.132 979.785 230.132 980.295C230.132 980.975 229.877 981.825 229.367 982.845C228.46 984.772 227.695 986.5 227.072 988.03C226.449 989.503 226.137 990.722 226.137 991.685C226.137 993.102 226.93 993.81 228.517 993.81C229.764 993.81 231.775 993.328 234.552 992.365C237.442 991.288 240.36 989.787 243.307 987.86C246.31 985.933 249.002 983.978 251.382 981.995C251.665 981.712 251.949 981.485 252.232 981.315C252.515 981.145 252.77 980.947 252.997 980.72C253.28 980.55 253.535 980.352 253.762 980.125C254.045 979.898 254.357 979.672 254.697 979.445C255.037 979.332 255.264 979.275 255.377 979.275C255.774 979.275 255.972 979.473 255.972 979.87C255.972 980.21 255.83 980.522 255.547 980.805C255.207 981.258 254.385 982.08 253.082 983.27C251.779 984.46 250.164 985.792 248.237 987.265C246.367 988.738 244.299 990.155 242.032 991.515C239.822 992.875 237.584 993.952 235.317 994.745C234.467 995.028 233.475 995.283 232.342 995.51C231.265 995.793 230.189 995.935 229.112 995.935ZM366.205 998.145C364.278 998.145 362.465 997.862 360.765 997.295C359.065 996.785 357.677 995.907 356.6 994.66C355.58 993.357 355.07 991.6 355.07 989.39C355.07 987.407 355.693 985.452 356.94 983.525C358.187 981.598 359.745 979.87 361.615 978.34C363.485 976.753 365.298 975.563 367.055 974.77C366.148 974.147 365.298 973.268 364.505 972.135C363.712 971.002 363.315 969.557 363.315 967.8C363.315 965.647 363.967 963.663 365.27 961.85C366.63 960.037 368.358 958.422 370.455 957.005C372.608 955.532 374.903 954.285 377.34 953.265C379.777 952.245 382.1 951.48 384.31 950.97C387.483 950.177 390.827 949.78 394.34 949.78C396.55 949.78 398.647 949.978 400.63 950.375C402.613 950.772 404.285 951.423 405.645 952.33C407.062 953.237 407.883 954.455 408.11 955.985C408.28 957.175 407.94 958.393 407.09 959.64C406.24 960.83 405.107 961.963 403.69 963.04C402.273 964.06 400.772 964.938 399.185 965.675C397.598 966.355 396.182 966.808 394.935 967.035C394.652 967.092 394.368 967.148 394.085 967.205C393.802 967.205 393.547 967.205 393.32 967.205C392.583 967.205 392.102 967.063 391.875 966.78C391.818 966.723 391.79 966.61 391.79 966.44C391.79 966.1 391.903 965.873 392.13 965.76C392.357 965.533 392.753 965.363 393.32 965.25C394.567 964.967 395.927 964.542 397.4 963.975C398.93 963.352 400.347 962.643 401.65 961.85C402.953 961 404.002 960.15 404.795 959.3C405.588 958.393 405.9 957.515 405.73 956.665C405.503 955.362 404.653 954.427 403.18 953.86C401.707 953.237 399.837 952.925 397.57 952.925C395.757 952.925 393.83 953.095 391.79 953.435C389.807 953.718 387.993 954.058 386.35 954.455C381.873 955.532 378.303 956.778 375.64 958.195C373.033 959.555 371.078 960.943 369.775 962.36C368.472 963.777 367.622 965.137 367.225 966.44C366.828 967.687 366.63 968.735 366.63 969.585C366.63 970.718 366.885 971.625 367.395 972.305C367.905 972.985 368.528 973.523 369.265 973.92C370.058 973.637 370.767 973.467 371.39 973.41C372.013 973.297 372.552 973.24 373.005 973.24C373.968 973.24 374.62 973.438 374.96 973.835C375.357 974.232 375.413 974.685 375.13 975.195C374.903 975.592 374.422 976.045 373.685 976.555C372.948 977.065 371.928 977.547 370.625 978C368.868 978.623 367.112 979.7 365.355 981.23C363.655 982.703 362.238 984.347 361.105 986.16C360.028 987.917 359.49 989.56 359.49 991.09C359.49 992.337 360 993.442 361.02 994.405C362.097 995.312 364.023 995.765 366.8 995.765C368.727 995.765 370.852 995.482 373.175 994.915C375.555 994.348 377.878 993.555 380.145 992.535C382.468 991.458 384.565 990.183 386.435 988.71C388.362 987.237 389.892 985.593 391.025 983.78C392.215 981.967 392.81 980.04 392.81 978C392.81 977.603 392.81 977.235 392.81 976.895C392.81 976.555 392.753 976.215 392.64 975.875C392.527 975.592 392.527 975.365 392.64 975.195C390.6 975.535 388.673 975.932 386.86 976.385C385.047 976.838 383.488 977.377 382.185 978C380.372 978.85 378.87 979.955 377.68 981.315C376.547 982.675 375.98 984.063 375.98 985.48C375.98 985.707 375.895 985.933 375.725 986.16C375.612 986.387 375.413 986.5 375.13 986.5C374.847 986.5 374.62 986.387 374.45 986.16C374.337 985.877 374.28 985.593 374.28 985.31C374.28 982.533 374.903 980.182 376.15 978.255C377.397 976.272 379.493 974.742 382.44 973.665C383.687 973.212 384.99 972.872 386.35 972.645C387.767 972.362 389.24 972.135 390.77 971.965L400.12 971.03C403.293 970.69 406.325 970.237 409.215 969.67C412.105 969.047 414.542 968.027 416.525 966.61C416.978 966.327 417.262 966.072 417.375 965.845C417.488 965.618 417.545 965.448 417.545 965.335C417.545 965.108 417.488 964.882 417.375 964.655C417.318 964.372 417.148 964.173 416.865 964.06C416.752 964.003 416.553 963.918 416.27 963.805C416.043 963.692 415.845 963.55 415.675 963.38C415.335 963.153 415.165 962.898 415.165 962.615C415.165 962.275 415.505 962.105 416.185 962.105C417.092 962.105 418.027 962.502 418.99 963.295C420.01 964.088 420.52 965.052 420.52 966.185C420.52 967.772 419.642 969.132 417.885 970.265C416.128 971.342 413.295 972.192 409.385 972.815C407.458 973.155 405.22 973.467 402.67 973.75C400.177 974.033 397.655 974.373 395.105 974.77C394.878 974.827 394.68 974.883 394.51 974.94C394.34 974.94 394.17 974.94 394 974.94C394.227 975.053 394.397 975.223 394.51 975.45C394.793 975.96 394.992 976.498 395.105 977.065C395.218 977.575 395.275 978.142 395.275 978.765C395.275 980.748 394.737 982.675 393.66 984.545C392.64 986.415 391.252 988.143 389.495 989.73C387.795 991.317 385.897 992.677 383.8 993.81C382.61 994.433 381.023 995.085 379.04 995.765C377.113 996.445 375.017 997.012 372.75 997.465C370.54 997.918 368.358 998.145 366.205 998.145ZM522.953 1009.62C520.46 1009.62 518.25 1009.34 516.323 1008.77C513.603 1007.92 511.251 1006.56 509.268 1004.69C507.228 1002.88 505.811 1000.53 505.018 997.635C504.961 997.408 504.933 997.21 504.933 997.04C504.876 996.87 504.848 996.728 504.848 996.615C504.848 996.162 504.933 995.822 505.103 995.595C505.273 995.425 505.415 995.312 505.528 995.255C505.755 995.255 506.01 995.397 506.293 995.68C506.576 996.02 506.803 996.53 506.973 997.21C507.596 999.873 508.786 1001.97 510.543 1003.5C512.3 1005.09 514.538 1006.16 517.258 1006.73C518.051 1006.84 518.816 1006.93 519.553 1006.99C520.29 1007.1 521.026 1007.16 521.763 1007.16C524.37 1007.16 526.948 1006.76 529.498 1005.97C532.048 1005.17 534.428 1004.18 536.638 1002.99C540.038 1001.18 544.005 998.315 548.538 994.405C553.071 990.438 557.661 985.99 562.308 981.06H557.633C557.18 981.06 556.84 980.918 556.613 980.635C556.386 980.352 556.386 979.983 556.613 979.53C557.01 978.85 558.001 978.34 559.588 978C559.871 977.943 560.58 977.887 561.713 977.83C562.846 977.773 564.065 977.717 565.368 977.66C568.938 973.637 572.338 969.5 575.568 965.25C578.855 960.943 581.773 956.665 584.323 952.415C580.696 951.452 577.07 950.488 573.443 949.525C569.816 948.562 566.161 947.712 562.478 946.975C559.021 946.238 555.48 945.643 551.853 945.19C548.283 944.737 544.656 944.51 540.973 944.51C539.216 944.51 537.46 944.595 535.703 944.765C533.946 944.878 532.19 945.077 530.433 945.36C527.77 945.813 525.248 946.692 522.868 947.995C520.545 949.298 518.646 950.828 517.173 952.585C515.756 954.342 515.048 956.212 515.048 958.195C515.048 959.158 515.246 960.15 515.643 961.17C516.096 962.133 516.776 963.097 517.683 964.06C518.363 964.74 519.44 965.562 520.913 966.525C522.443 967.432 524.03 968.282 525.673 969.075C527.373 969.868 528.79 970.435 529.923 970.775C530.433 970.832 530.801 970.973 531.028 971.2C531.255 971.427 531.368 971.653 531.368 971.88C531.368 972.503 530.915 972.73 530.008 972.56C527.968 972.447 525.9 972.022 523.803 971.285C521.706 970.492 519.751 969.415 517.938 968.055C516.181 966.695 514.765 965.08 513.688 963.21C512.611 961.34 512.073 959.243 512.073 956.92C512.073 955.56 512.271 954.257 512.668 953.01C513.518 949.837 515.133 947.343 517.513 945.53C519.893 943.717 522.783 942.442 526.183 941.705C529.583 940.968 533.21 940.6 537.063 940.6C538.196 940.6 539.33 940.628 540.463 940.685C541.653 940.742 542.815 940.827 543.948 940.94C547.291 941.28 550.606 941.762 553.893 942.385C557.18 943.008 560.466 943.717 563.753 944.51C567.04 945.303 570.326 946.153 573.613 947.06C576.956 947.967 580.356 948.873 583.813 949.78C584.096 949.837 584.38 949.922 584.663 950.035C584.946 950.092 585.258 950.177 585.598 950.29C586.845 947.853 587.61 946.323 587.893 945.7C588.233 945.077 588.488 944.708 588.658 944.595C588.885 944.482 589.055 944.425 589.168 944.425C589.451 944.425 589.678 944.567 589.848 944.85C589.961 944.963 590.018 945.133 590.018 945.36C590.018 945.53 590.018 945.728 590.018 945.955C590.018 946.182 590.018 946.408 590.018 946.635C590.018 946.805 589.961 946.975 589.848 947.145C589.791 947.315 589.65 947.598 589.423 947.995C589.253 948.392 588.771 949.327 587.978 950.8C592.001 951.82 595.94 952.698 599.793 953.435C603.703 954.172 607.726 954.54 611.863 954.54C612.316 954.54 612.77 954.54 613.223 954.54C613.733 954.483 614.215 954.455 614.668 954.455C615.801 954.398 616.963 954.2 618.153 953.86C619.4 953.463 620.448 952.953 621.298 952.33C622.148 951.65 622.573 950.857 622.573 949.95C622.573 948.647 622.063 947.598 621.043 946.805C620.023 946.012 619.116 945.247 618.323 944.51C618.096 944.34 617.983 944.17 617.983 944C617.983 943.717 618.125 943.518 618.408 943.405C618.635 943.292 618.833 943.235 619.003 943.235C619.343 943.235 619.683 943.32 620.023 943.49C620.703 943.83 621.525 944.397 622.488 945.19C623.451 945.927 624.301 946.805 625.038 947.825C625.775 948.845 626.143 949.95 626.143 951.14C626.143 952.727 625.548 953.973 624.358 954.88C623.168 955.787 621.78 956.438 620.193 956.835C618.606 957.175 617.218 957.402 616.028 957.515C615.631 957.515 615.206 957.543 614.753 957.6C614.356 957.6 613.931 957.6 613.478 957.6C611.211 957.6 608.945 957.458 606.678 957.175C604.468 956.892 602.201 956.523 599.878 956.07C597.725 955.673 595.543 955.22 593.333 954.71C591.123 954.2 588.941 953.662 586.788 953.095C584.635 956.948 582.198 960.972 579.478 965.165C576.815 969.358 573.896 973.495 570.723 977.575H575.228C577.098 977.575 578.996 977.603 580.923 977.66C582.906 977.717 584.606 977.887 586.023 978.17C587.1 978.34 587.836 978.538 588.233 978.765C588.63 978.992 588.828 979.162 588.828 979.275C588.828 979.445 588.545 979.643 587.978 979.87C587.468 980.04 586.788 980.153 585.938 980.21C583.671 980.323 580.895 980.437 577.608 980.55C574.378 980.663 571.176 980.777 568.003 980.89C564.886 984.63 561.656 988.172 558.313 991.515C555.026 994.802 551.796 997.663 548.623 1000.1C545.45 1002.59 542.446 1004.49 539.613 1005.8C537.176 1006.87 534.485 1007.78 531.538 1008.52C528.648 1009.25 525.786 1009.62 522.953 1009.62ZM629.781 1009.88C627.174 1009.88 625.276 1009.22 624.086 1007.92C622.896 1006.62 622.301 1004.95 622.301 1002.91C622.301 1000.7 622.839 998.202 623.916 995.425C625.049 992.648 626.522 989.843 628.336 987.01C630.206 984.12 632.217 981.457 634.371 979.02C634.087 979.077 633.804 979.105 633.521 979.105C633.237 979.105 632.954 979.105 632.671 979.105C630.744 979.105 629.129 978.652 627.826 977.745C627.259 978.595 626.466 979.53 625.446 980.55C624.426 981.57 623.434 982.477 622.471 983.27C620.091 985.253 617.569 987.152 614.906 988.965C612.242 990.778 609.607 992.28 607.001 993.47C604.394 994.66 601.957 995.34 599.691 995.51C599.521 995.51 599.294 995.482 599.011 995.425C598.671 995.368 598.416 995.255 598.246 995.085C598.019 994.915 597.962 994.745 598.076 994.575C598.189 994.348 598.302 994.207 598.416 994.15C598.586 994.037 598.784 993.952 599.011 993.895C599.237 993.782 599.549 993.697 599.946 993.64C601.872 993.243 603.997 992.45 606.321 991.26C608.644 990.013 611.052 988.54 613.546 986.84C616.096 985.083 618.532 983.242 620.856 981.315C621.819 980.578 622.811 979.757 623.831 978.85C624.851 977.887 625.757 977.008 626.551 976.215C625.984 975.308 625.701 974.345 625.701 973.325C625.701 971.965 626.069 970.605 626.806 969.245C627.542 967.885 628.477 966.638 629.611 965.505C630.744 964.315 631.962 963.38 633.266 962.7C634.569 961.963 635.787 961.595 636.921 961.595C637.544 961.595 637.969 961.737 638.196 962.02C638.479 962.303 638.621 962.615 638.621 962.955C638.621 963.692 638.366 964.258 637.856 964.655C637.459 964.995 636.807 965.618 635.901 966.525C635.051 967.432 634.116 968.452 633.096 969.585C632.076 970.662 631.141 971.738 630.291 972.815C629.497 973.835 628.959 974.685 628.676 975.365C628.846 975.648 629.101 975.903 629.441 976.13C629.837 976.357 630.489 976.47 631.396 976.47C632.756 976.47 634.087 976.187 635.391 975.62C636.694 975.053 637.912 974.373 639.046 973.58C639.386 973.41 639.754 973.325 640.151 973.325C640.774 973.325 641.369 973.467 641.936 973.75C642.559 973.977 642.984 974.232 643.211 974.515C643.267 974.572 643.296 974.685 643.296 974.855C643.296 975.422 642.984 976.102 642.361 976.895C642.021 977.292 641.624 977.717 641.171 978.17C640.774 978.623 640.377 979.077 639.981 979.53C638.394 981.287 636.751 983.27 635.051 985.48C633.407 987.633 631.906 989.843 630.546 992.11C629.186 994.32 628.081 996.417 627.231 998.4C626.381 1000.44 625.956 1002.2 625.956 1003.67C625.956 1004.75 626.239 1005.6 626.806 1006.22C627.429 1006.9 628.477 1007.24 629.951 1007.24C630.234 1007.24 630.546 1007.21 630.886 1007.16C631.282 1007.16 631.679 1007.13 632.076 1007.07C633.492 1006.84 635.107 1006.33 636.921 1005.54C638.734 1004.75 640.547 1003.81 642.361 1002.74C644.174 1001.72 645.732 1000.78 647.036 999.93C647.149 999.817 647.347 999.76 647.631 999.76C648.027 999.76 648.254 999.93 648.311 1000.27V1000.44C648.311 1000.72 648.141 1001.04 647.801 1001.38C647.687 1001.49 647.489 1001.66 647.206 1001.89C646.922 1002.17 646.554 1002.51 646.101 1002.91C644.287 1004.49 642.276 1005.88 640.066 1007.07C637.856 1008.32 635.532 1009.14 633.096 1009.54C632.529 1009.59 631.962 1009.65 631.396 1009.71C630.829 1009.82 630.291 1009.88 629.781 1009.88ZM688.461 995.935C686.761 995.935 685.202 995.51 683.786 994.66C682.426 993.753 681.746 992.138 681.746 989.815C681.746 988.965 681.859 988.087 682.086 987.18C682.312 986.217 682.567 985.282 682.851 984.375C681.887 985.338 680.697 986.472 679.281 987.775C677.864 989.022 676.306 990.24 674.606 991.43C672.962 992.62 671.291 993.612 669.591 994.405C667.947 995.142 666.389 995.51 664.916 995.51C663.102 995.51 661.629 994.858 660.496 993.555C659.702 992.705 659.306 991.6 659.306 990.24C659.306 988.597 659.872 986.783 661.006 984.8C662.196 982.76 663.782 980.748 665.766 978.765C667.806 976.782 670.101 974.968 672.651 973.325C675.257 971.682 677.949 970.378 680.726 969.415C683.729 968.338 686.392 967.8 688.716 967.8C692.796 967.8 694.836 969.557 694.836 973.07C694.836 973.297 694.807 973.58 694.751 973.92C694.751 974.203 694.722 974.515 694.666 974.855C694.382 975.988 693.957 976.753 693.391 977.15C693.334 977.207 693.192 977.292 692.966 977.405C692.739 977.462 692.541 977.377 692.371 977.15C692.201 976.867 692.172 976.47 692.286 975.96C692.456 975.337 692.541 974.798 692.541 974.345C692.541 972.758 691.662 971.965 689.906 971.965C688.942 971.965 687.724 972.163 686.251 972.56C684.777 972.957 683.191 973.495 681.491 974.175C679.847 974.798 678.261 975.478 676.731 976.215C675.257 976.952 674.011 977.688 672.991 978.425C670.384 980.295 668.089 982.363 666.106 984.63C664.179 986.84 663.074 988.767 662.791 990.41C662.734 990.58 662.706 990.75 662.706 990.92C662.706 991.09 662.706 991.232 662.706 991.345C662.706 992.195 662.876 992.762 663.216 993.045C663.612 993.328 664.066 993.47 664.576 993.47C665.539 993.47 666.644 993.187 667.891 992.62C669.137 991.997 670.299 991.317 671.376 990.58C672.509 989.843 673.302 989.277 673.756 988.88C675.512 987.35 677.496 985.707 679.706 983.95C681.972 982.137 683.984 980.465 685.741 978.935C686.081 978.765 686.506 978.68 687.016 978.68C687.922 978.68 688.631 978.878 689.141 979.275C689.367 979.445 689.481 979.785 689.481 980.295C689.481 980.975 689.226 981.825 688.716 982.845C687.809 984.772 687.044 986.5 686.421 988.03C685.797 989.503 685.486 990.722 685.486 991.685C685.486 993.102 686.279 993.81 687.866 993.81C689.112 993.81 691.124 993.328 693.901 992.365C696.791 991.288 699.709 989.787 702.656 987.86C705.659 985.933 708.351 983.978 710.731 981.995C711.014 981.712 711.297 981.485 711.581 981.315C711.864 981.145 712.119 980.947 712.346 980.72C712.629 980.55 712.884 980.352 713.111 980.125C713.394 979.898 713.706 979.672 714.046 979.445C714.386 979.332 714.612 979.275 714.726 979.275C715.122 979.275 715.321 979.473 715.321 979.87C715.321 980.21 715.179 980.522 714.896 980.805C714.556 981.258 713.734 982.08 712.431 983.27C711.127 984.46 709.512 985.792 707.586 987.265C705.716 988.738 703.647 990.155 701.381 991.515C699.171 992.875 696.932 993.952 694.666 994.745C693.816 995.028 692.824 995.283 691.691 995.51C690.614 995.793 689.537 995.935 688.461 995.935ZM717.925 997.635C716.962 997.635 716.48 997.182 716.48 996.275C716.48 995.708 716.622 995.085 716.905 994.405C717.245 993.725 717.642 992.988 718.095 992.195C718.832 990.892 719.653 989.532 720.56 988.115C721.523 986.698 722.345 985.537 723.025 984.63C723.592 983.893 724.385 982.845 725.405 981.485C726.425 980.125 727.388 978.68 728.295 977.15C729.542 975.11 730.165 973.41 730.165 972.05C730.165 971.313 729.938 970.747 729.485 970.35C729.258 970.123 729.032 969.868 728.805 969.585C728.578 969.245 728.465 968.962 728.465 968.735C728.465 968.168 728.692 967.885 729.145 967.885C729.598 967.885 730.023 968.055 730.42 968.395C730.817 968.622 731.242 968.933 731.695 969.33C732.205 969.727 732.658 970.18 733.055 970.69C733.225 970.917 733.395 971.143 733.565 971.37C733.792 971.54 733.962 971.767 734.075 972.05C734.245 972.333 734.387 972.645 734.5 972.985C734.613 973.268 734.67 973.608 734.67 974.005C734.67 974.798 734.33 975.762 733.65 976.895C732.63 978.652 731.412 980.295 729.995 981.825C728.635 983.298 727.303 984.772 726 986.245C725.83 986.472 725.632 986.698 725.405 986.925C725.235 987.095 725.065 987.293 724.895 987.52C727.105 985.48 729.485 983.383 732.035 981.23C734.642 979.02 736.908 977.292 738.835 976.045C739.458 975.648 740.28 975.28 741.3 974.94C742.32 974.543 743.283 974.345 744.19 974.345C745.04 974.345 745.777 974.6 746.4 975.11C747.08 975.563 747.42 976.442 747.42 977.745C747.42 978.878 747.193 980.182 746.74 981.655C746.287 983.072 745.833 984.375 745.38 985.565C744.983 986.472 744.672 987.35 744.445 988.2C744.218 988.993 744.105 989.702 744.105 990.325C744.105 992.308 745.182 993.3 747.335 993.3C747.902 993.3 748.553 993.243 749.29 993.13C750.083 992.96 750.933 992.705 751.84 992.365C754.73 991.288 757.648 989.787 760.595 987.86C763.598 985.933 766.29 983.978 768.67 981.995C768.953 981.768 769.237 981.57 769.52 981.4C769.803 981.173 770.058 980.975 770.285 980.805C770.568 980.578 770.823 980.38 771.05 980.21C771.333 979.983 771.645 979.728 771.985 979.445C772.325 979.332 772.552 979.275 772.665 979.275C773.005 979.275 773.175 979.473 773.175 979.87C773.175 980.267 773.062 980.607 772.835 980.89C772.495 981.343 771.673 982.165 770.37 983.355C769.067 984.545 767.452 985.877 765.525 987.35C763.655 988.823 761.587 990.24 759.32 991.6C757.11 992.96 754.872 994.037 752.605 994.83C750.565 995.51 748.44 995.85 746.23 995.85C744.53 995.85 743 995.453 741.64 994.66C740.28 993.867 739.6 992.507 739.6 990.58C739.6 989.447 739.883 988.115 740.45 986.585C740.847 985.565 741.272 984.517 741.725 983.44C742.235 982.363 742.547 981.287 742.66 980.21C742.717 979.983 742.745 979.785 742.745 979.615C742.745 979.388 742.745 979.218 742.745 979.105C742.745 978.425 742.632 978 742.405 977.83C742.235 977.66 742.037 977.575 741.81 977.575C741.243 977.575 740.535 977.802 739.685 978.255C738.892 978.652 738.155 979.077 737.475 979.53C736.852 979.927 735.86 980.72 734.5 981.91C733.197 983.043 731.752 984.347 730.165 985.82C728.635 987.237 727.162 988.597 725.745 989.9C724.838 990.75 723.96 991.628 723.11 992.535C722.317 993.385 721.58 994.178 720.9 994.915C720.163 995.708 719.54 996.36 719.03 996.87C718.52 997.38 718.152 997.635 717.925 997.635Z" fill="white"/>
<g filter="url(#filter2_d_50_2)">
<path d="M372.2 516H326.41V512.531C331.63 512.531 335.33 512.036 337.511 511.044C339.691 510.053 341.013 508.269 341.475 505.692C341.938 503.049 342.169 499.349 342.169 494.592V426.106C342.169 420.556 341.839 415.897 341.178 412.131C340.517 408.299 338.403 406.383 334.835 406.383C333.315 406.383 331.729 406.68 330.078 407.275C328.492 407.869 327.038 408.464 325.717 409.059L324.131 406.383L353.864 391.813H357.036V494.592C357.036 499.217 357.234 502.851 357.631 505.494C358.093 508.071 359.381 509.888 361.496 510.945C363.61 512.003 367.178 512.531 372.2 512.531V516ZM477.754 397.661L437.316 518.775H427.702L463.977 409.059H430.577C425.753 409.059 421.789 409.455 418.683 410.248C415.578 411.041 412.902 412.495 410.655 414.609C408.409 416.723 406.129 419.829 403.816 423.925L401.24 423.232L413.034 394.489H477.754V397.661ZM340.088 656H282.108V652.531C284.222 652.531 286.402 652.168 288.649 651.441C290.961 650.714 292.118 649.062 292.118 646.485C292.118 645.164 291.226 643.479 289.442 641.431C287.658 639.316 286.303 637.83 285.378 636.971L248.707 600.498L243.355 605.85V634.592C243.355 639.547 243.718 643.314 244.445 645.891C245.238 648.468 246.857 650.218 249.302 651.144C251.812 652.069 255.612 652.531 260.699 652.531V656H209.062V652.531C214.282 652.531 218.081 652.069 220.46 651.144C222.905 650.218 224.458 648.468 225.118 645.891C225.779 643.314 226.11 639.547 226.11 634.592V555.897C226.11 551.008 225.779 547.242 225.118 544.599C224.458 541.956 222.905 540.139 220.46 539.148C218.081 538.156 214.282 537.661 209.062 537.661V534.489H260.699V537.661C255.744 537.661 252.011 538.156 249.5 539.148C247.055 540.073 245.403 541.857 244.544 544.5C243.751 547.143 243.355 550.942 243.355 555.897V594.154C258.948 579.552 270.677 568.253 278.54 560.258C286.468 552.263 290.433 546.449 290.433 542.815C290.433 540.436 289.343 538.982 287.162 538.454C285.048 537.925 282.471 537.661 279.432 537.661V534.489H324.23V537.661C320.001 537.661 315.938 538.751 312.039 540.932C308.141 543.046 303.648 546.482 298.56 551.239C293.538 555.93 287.162 562.141 279.432 569.872L260.699 588.604L305.795 633.006C311.081 638.226 316.202 642.62 321.157 646.188C326.179 649.69 332.489 651.804 340.088 652.531V656ZM463.977 594.65C463.977 603.306 462.557 611.499 459.715 619.23C456.94 626.96 452.91 633.832 447.624 639.845C442.404 645.792 436.127 650.483 428.793 653.919C421.458 657.288 413.298 658.973 404.312 658.973C392.22 658.973 381.715 656.066 372.795 650.252C363.941 644.371 357.069 636.574 352.179 626.861C347.29 617.148 344.845 606.477 344.845 594.848C344.845 583.153 347.422 572.548 352.576 563.033C357.796 553.453 364.965 545.854 374.083 540.238C383.201 534.621 393.74 531.813 405.7 531.813C414.487 531.813 422.449 533.498 429.585 536.868C436.721 540.172 442.833 544.764 447.921 550.644C453.075 556.459 457.039 563.133 459.814 570.665C462.59 578.197 463.977 586.192 463.977 594.65ZM443.56 595.839C443.56 589.166 442.999 582.426 441.875 575.621C440.818 568.815 438.869 562.604 436.028 556.988C433.187 551.305 429.156 546.746 423.936 543.31C418.782 539.874 412.076 538.156 403.816 538.156C396.218 538.156 389.908 539.907 384.886 543.409C379.931 546.845 376.032 551.371 373.191 556.988C370.35 562.604 368.335 568.683 367.145 575.224C366.022 581.765 365.46 588.142 365.46 594.353C365.46 600.431 366.055 606.841 367.244 613.58C368.434 620.32 370.449 626.63 373.29 632.511C376.197 638.391 380.129 643.182 385.084 646.882C390.106 650.516 396.416 652.333 404.015 652.333C412.01 652.333 418.584 650.648 423.738 647.278C428.892 643.908 432.889 639.448 435.73 633.898C438.638 628.348 440.653 622.269 441.776 615.662C442.966 608.988 443.56 602.381 443.56 595.839ZM579.442 622.798L569.035 656H474.582V652.531C480.264 652.531 484.625 651.639 487.665 649.855C490.77 648.071 492.323 643.941 492.323 637.466V553.023C492.323 546.614 490.77 542.484 487.665 540.634C484.625 538.784 480.264 537.859 474.582 537.859V534.489H527.409V537.859C521.594 537.859 517.134 538.784 514.028 540.634C510.923 542.484 509.37 546.614 509.37 553.023V633.006C509.37 639.019 510.427 643.049 512.542 645.098C514.656 647.146 518.72 648.17 524.733 648.17H536.923C544.72 648.17 550.931 647.509 555.556 646.188C560.181 644.866 564.014 642.356 567.053 638.655C570.159 634.955 573.264 629.504 576.37 622.302L579.442 622.798ZM387.067 772.61L378.246 796H306.885V792.531C312.502 787.377 318.581 781.596 325.122 775.187C331.729 768.777 337.973 762.071 343.854 755.067C349.801 747.997 354.657 740.828 358.423 733.56C362.19 726.225 364.073 719.089 364.073 712.152C364.073 707.46 363.115 703.099 361.199 699.069C359.282 695.038 356.54 691.801 352.972 689.356C349.404 686.845 345.142 685.59 340.187 685.59C333.315 685.59 327.666 687.44 323.239 691.14C318.878 694.84 315.607 699.829 313.427 706.106H310.255C311.511 696.327 314.98 688.167 320.662 681.625C326.344 675.084 334.405 671.813 344.845 671.813C350.99 671.813 356.672 673.168 361.892 675.877C367.178 678.52 371.407 682.253 374.579 687.076C377.816 691.9 379.435 697.516 379.435 703.925C379.435 709.872 378.081 715.852 375.371 721.865C372.729 727.811 369.392 733.461 365.361 738.813C361.397 744.099 357.432 748.856 353.468 753.085C349.041 757.908 344.548 762.864 339.989 767.951C335.43 773.039 330.738 777.83 325.915 782.323H357.531C362.091 782.323 365.89 782.157 368.929 781.827C371.969 781.431 374.645 780.572 376.957 779.25C379.27 777.863 381.483 775.649 383.598 772.61H387.067ZM479.736 763.888H463.68V796H448.813V763.888H397.473V752.589L453.967 671.813H463.68V751.202H479.736V763.888ZM448.813 751.202V690.744L406.195 751.202H448.813Z" fill="white"/>
</g>
<defs>
<filter id="filter0_d_50_2" x="6.10352e-05" y="927.523" width="790" height="392.477" filterUnits="userSpaceOnUse" color-interpolation-filters="sRGB">
<feFlood flood-opacity="0" result="BackgroundImageFix"/>
<feColorMatrix in="SourceAlpha" type="matrix" values="0 0 0 0 0 0 0 0 0 0 0 0 0 0 0 0 0 0 127 0" result="hardAlpha"/>
<feOffset dy="4"/>
<feGaussianBlur stdDeviation="2"/>
<feComposite in2="hardAlpha" operator="out"/>
<feColorMatrix type="matrix" values="0 0 0 0 0 0 0 0 0 0 0 0 0 0 0 0 0 0 0.25 0"/>
<feBlend mode="normal" in2="BackgroundImageFix" result="effect1_dropShadow_50_2"/>
<feBlend mode="normal" in="SourceGraphic" in2="effect1_dropShadow_50_2" result="shape"/>
</filter>
<filter id="filter1_i_50_2" x="4.00006" y="-6.10352e-05" width="782" height="388.477" filterUnits="userSpaceOnUse" color-interpolation-filters="sRGB">
<feFlood flood-opacity="0" result="BackgroundImageFix"/>
<feBlend mode="normal" in="SourceGraphic" in2="BackgroundImageFix" result="shape"/>
<feColorMatrix in="SourceAlpha" type="matrix" values="0 0 0 0 0 0 0 0 0 0 0 0 0 0 0 0 0 0 127 0" result="hardAlpha"/>
<feOffset dy="4"/>
<feGaussianBlur stdDeviation="2"/>
<feComposite in2="hardAlpha" operator="arithmetic" k2="-1" k3="1"/>
<feColorMatrix type="matrix" values="0 0 0 0 0 0 0 0 0 0 0 0 0 0 0 0 0 0 0.25 0"/>
<feBlend mode="normal" in2="shape" result="effect1_innerShadow_50_2"/>
</filter>
<filter id="filter2_d_50_2" x="205.062" y="391.813" width="378.38" height="412.187" filterUnits="userSpaceOnUse" color-interpolation-filters="sRGB">
<feFlood flood-opacity="0" result="BackgroundImageFix"/>
<feColorMatrix in="SourceAlpha" type="matrix" values="0 0 0 0 0 0 0 0 0 0 0 0 0 0 0 0 0 0 127 0" result="hardAlpha"/>
<feOffset dy="4"/>
<feGaussianBlur stdDeviation="2"/>
<feComposite in2="hardAlpha" operator="out"/>
<feColorMatrix type="matrix" values="0 0 0 0 0 0 0 0 0 0 0 0 0 0 0 0 0 0 0.25 0"/>
<feBlend mode="normal" in2="BackgroundImageFix" result="effect1_dropShadow_50_2"/>
<feBlend mode="normal" in="SourceGraphic" in2="effect1_dropShadow_50_2" result="shape"/>
</filter>
</defs>
</svg>
