<?xml version="1.0" encoding="UTF-8"?>
<svg width="1200pt" height="1200pt" version="1.1" viewBox="0 0 1200 1200" xmlns="http://www.w3.org/2000/svg">
 <g>
  <rect width="1200" height="1200" fill="#e5e5d9"/>
  <path d="m788.21 261.52c-2.2148 0.027343-4.4102 0.25781-6.5547 0.57422-17.211 2.9023-31.859 15.695-35.984 33.109-2.5547 10.809 0.32812 21.844 4.957 32.262 4.6797 10.418 11.43 20.449 18.344 29.371 13.828 17.844 28.551 31.336 28.551 31.336v0.003907c2.0586 1.8906 4.9531 2.582 7.6445 1.8164 0 0 19.219-5.4258 39.586-15.156 10.184-4.8594 20.719-10.805 29.574-18.012 8.8555-7.2031 16.34-15.793 18.898-26.602 5.5-23.215-9.3945-47.496-33.449-53.207-11.766-2.7891-23.402 0.49219-33.43 6.6289-6.1953-10.031-15.152-18.16-26.926-20.961-3.7617-0.89453-7.5156-1.2812-11.211-1.207zm-70.332 39.344-0.003906 0.003906c-2.5508 0.12109-4.8945 1.4453-6.3164 3.5742-1.418 2.125-1.7461 4.7969-0.87891 7.2031 11.785 34.18 34.867 62.355 57.543 87.777v-0.003906c1.4219 1.5977 3.418 2.5625 5.5547 2.6836 2.1328 0.125 4.2266-0.60547 5.8242-2.0312 1.5938-1.4219 2.5586-3.4219 2.6758-5.5586 0.12109-2.1328-0.61328-4.2266-2.0391-5.8203-22.328-25.031-43.781-51.707-54.328-82.297-1.1289-3.4414-4.418-5.7031-8.0312-5.5312zm-356.9 42.141-32.781 18.949 30.246 25.902 40.684-23.516zm365.02 1.7148c-18.684 3.4766-36.5 9.4102-53.066 17.531-18.168 8.9062-34.844 20.414-49.543 34.051-13.848 12.84-25.91 27.594-35.84 43.848 3.6484 1.582 7.2773 3.2305 10.855 4.9844 5.2188 2.4609 10.328 5.1055 15.34 7.9102l-0.007813-0.003906c0.10547-0.16797 0.21484-0.33203 0.32813-0.49219 10.406-16.363 23.363-30.812 38.266-42.852 25.883-20.91 57.641-34.551 92-38.328-6.5625-8.4844-12.766-17.344-18.301-26.648zm185.78 2.1133c-2.0898 0.035156-4.0859 0.87891-5.5664 2.3594-23.211 22.633-54.23 36.754-85.484 49.113-2.0352 0.75-3.6836 2.2891-4.5703 4.2695-0.88672 1.9766-0.9375 4.2305-0.14062 6.25 0.79688 2.0156 2.375 3.625 4.375 4.4648 2 0.83984 4.2539 0.83594 6.2539-0.007813 19.832-7.8438 40.223-16.543 59.055-28.133 11.297-6.957 22.035-14.949 31.754-24.426v-0.003906c2.4062-2.2852 3.1641-5.8086 1.9102-8.8828-1.2539-3.0703-4.2656-5.0586-7.582-5.0078zm-26.082 38.316c-8.2539 5.0977-16.801 9.6406-25.484 13.789 62.434 40.457 93.582 116.36 76.27 189.91v0.011719c-22.586 95.395-118.35 154.54-213.63 131.91-94.086-22.336-152.84-116.11-132.55-210.3-8.6211-5.3594-17.672-10.047-27.109-13.953l-0.085937-0.023438-0.085938-0.027344c-0.085938-0.027343-0.17188-0.085937-0.25781-0.17187l0.003906-0.003907c0.3125 1.2461 0.32031 2.5469 0.027344 3.7969-26.34 111.25 42.238 222.6 153.32 248.97 111.08 26.371 222.28-42.285 248.62-153.53 18.852-79.793-11.148-162.94-76.078-212.31h-0.003906c-0.99219 0.65625-1.9922 1.2539-2.9844 1.8672zm-572.28-14.652-10.762 6.2188-10.766 6.2188 7.2773 39.184 22.234-12.859 22.258-12.867zm86.496 11.984-33.789 19.535 6.0898 53.887zm-122.81 9.0117-32.773 18.949-0.57422 43.742 40.656-23.508zm159.78 0.85156c-3.5234-0.12891-6.7227 2.0547-7.8906 5.3828-12.469 33.969-24.945 67.938-37.414 101.91v0.003906c-0.76953 2.0117-0.70312 4.25 0.19141 6.2109 0.89453 1.9609 2.5352 3.4805 4.5586 4.2227 2.0234 0.74219 4.2617 0.64062 6.207-0.27734 1.9492-0.92188 3.4492-2.5859 4.1641-4.6172 12.469-33.969 24.945-67.93 37.414-101.9 0.92969-2.4297 0.63281-5.1562-0.80078-7.3281-1.4336-2.168-3.8281-3.5117-6.4258-3.6055zm-85.969 18.465-42.926 24.816 49.895 36.895zm128.19 23.34v0.003906c-16.141 0.17188-32.262 1.7891-48.074 5.0312-4.0586 11.043-8.1133 22.09-12.168 33.133 21.926-6.4336 44.789-9.375 67.574-8.832 28.445 0.65625 56.762 6.7773 82.961 18.203 84.328 34.941 139.9 125.18 134.09 216.1 7.3828 2.9648 15.086 5.4258 23.07 7.3164 1.8281 0.41016 3.6641 0.82031 5.5 1.1875 9.3008-100.47-49.219-203.65-140.55-246.62l-0.085938-0.023437-0.027344-0.027344c-34.758-17.074-73.559-25.738-112.27-25.477zm-186.31 10.258-33.812 19.543 77.398 12.695zm597.24 34.91 0.003907 0.003907c-2.6953 0.015625-5.207 1.3828-6.6836 3.6367-1.4766 2.2578-1.7266 5.1055-0.66797 7.582 16.586 40.211 12.102 88.547-11.344 124.93h0.003906c-1.1836 1.7969-1.6016 3.9922-1.1562 6.0938 0.44141 2.1055 1.7109 3.9453 3.5156 5.1094 1.8086 1.1641 4.0078 1.5586 6.1055 1.0938 2.1016-0.46484 3.9258-1.75 5.0742-3.5703 26.426-41.008 31.375-94.473 12.688-139.79v0.003906c-1.2227-3.0898-4.2188-5.1133-7.543-5.0898zm-634.04 17.359h0.003907c-4.1875 0.046874-7.6406 3.3008-7.9414 7.4766-0.29687 4.1797 2.6562 7.8906 6.793 8.5352 35.613 6.1719 71.23 12.332 106.84 18.504v-0.003906c2.1328 0.43359 4.3477-0.015625 6.1445-1.2461 1.793-1.2266 3.0156-3.1289 3.3867-5.2734 0.37109-2.1406-0.14062-4.3438-1.418-6.1055-1.2773-1.7578-3.2148-2.9258-5.3672-3.2383-35.617-6.1719-71.227-12.344-106.84-18.512l-0.003906 0.003906c-0.52734-0.11328-1.0625-0.16797-1.6055-0.17187zm36.695 22.625c-69.492 76.582-83.305 198.25-32.195 288.32l0.027344 0.085937 0.027344 0.17188c46.676 87.836 149.93 141.09 248.45 128.92l0.17188-0.023437c95.355-9.8242 180.97-79.031 210.53-170.33-2.4492-0.49219-4.8906-1.0156-7.3438-1.5977-7.1211-1.6875-14.07-3.7109-20.855-6.0312-1.207 3.5078-2.4688 6.9922-3.8438 10.434v0.027344c-32.68 84.836-120.66 142.98-211.39 139.86-87.023-0.94141-169.47-57.449-201.38-138.64-35.098-82.68-12.934-183.89 51.887-245.22-11.375-1.9688-22.75-3.9414-34.125-5.918zm567.91 114.28h0.003906c-2.0938 0.10547-4.0664 1.0195-5.4961 2.5586-6.2344 6.5-13.133 12.34-20.531 17.426-1.7617 1.2109-2.9688 3.0703-3.3555 5.1719-0.38672 2.1016 0.074219 4.2695 1.2852 6.0312 1.2109 1.7578 3.0742 2.9648 5.1719 3.3516 2.1016 0.38672 4.2695-0.074219 6.0312-1.2852 8.2891-5.7031 16.012-12.254 23.012-19.543v-0.003906c2.3359-2.3594 2.9844-5.9141 1.6289-8.9492-1.3555-3.0312-4.4336-4.9219-7.75-4.7578zm-548.95 47.957h0.003907c-2.1367 0.027343-4.1719 0.90625-5.6602 2.4375-1.4883 1.5312-2.3086 3.5898-2.2812 5.7227-0.003906 12.012 1.207 24.027 3.6133 35.805v0.003907c0.39062 2.1289 1.6211 4.0117 3.4141 5.2227 1.793 1.2109 4 1.6523 6.1211 1.2188 2.1172-0.43359 3.9766-1.7031 5.1484-3.5195 1.1758-1.8164 1.5703-4.0312 1.0938-6.1445-2.1875-10.703-3.2852-21.648-3.2773-32.586v0.003906c0.03125-2.1758-0.82031-4.2695-2.3594-5.8047-1.5352-1.5391-3.6289-2.3867-5.8047-2.3594zm13.301 66.047h0.003906c-2.6992 0.023437-5.207 1.4023-6.6797 3.6641-1.4688 2.2656-1.707 5.1172-0.63281 7.5938 22.23 53.367 71.125 93.676 127.83 104.96 2.0977 0.41797 4.2734-0.011719 6.0508-1.1992 1.7773-1.1836 3.0117-3.0273 3.4297-5.1211 0.41797-2.0977-0.011719-4.2734-1.1992-6.0508s-3.0312-3.0117-5.125-3.4297c-51.207-10.191-96.004-47.105-116.11-95.359-1.2344-3.0898-4.2383-5.1016-7.5664-5.0625z" fill="#333"/>
 </g>
</svg>
