<?xml version="1.0" encoding="UTF-8"?>
<svg width="1200pt" height="1200pt" version="1.1" viewBox="0 0 1200 1200" xmlns="http://www.w3.org/2000/svg">
 <g fill="#333">
  <path d="m1026 264h-271.2v-45.602c0-22.277-8.8516-43.641-24.605-59.395-15.75-15.754-37.117-24.605-59.395-24.605h-141.6c-22.277 0-43.645 8.8516-59.395 24.605-15.754 15.754-24.605 37.117-24.605 59.395v45.602h-271.2c-6.3633 0-12.469 2.5273-16.969 7.0312-4.5039 4.5-7.0312 10.605-7.0312 16.969-0.35156 6.4648 2.0664 12.777 6.6445 17.355s10.891 6.9961 17.355 6.6445h75.602v573.6c0 47.738 18.961 93.52 52.719 127.28 33.758 33.758 79.539 52.723 127.28 52.723h342c31.594 0 62.637-8.3203 90-24.117 27.363-15.797 50.086-38.52 65.883-65.883 15.797-27.363 24.117-58.406 24.117-90v-573.6h74.398c6.4648 0.35156 12.777-2.0664 17.355-6.6445s6.9961-10.891 6.6445-17.355c0-6.3633-2.5273-12.469-7.0312-16.969-4.5-4.5039-10.605-7.0312-16.969-7.0312zm-532.8-45.602c0-9.5469 3.793-18.703 10.547-25.453 6.75-6.7539 15.906-10.547 25.453-10.547h141.6c9.5469 0 18.703 3.793 25.453 10.547 6.7539 6.75 10.547 15.906 10.547 25.453v45.602h-213.6zm410.4 667.2c0 35.008-13.91 68.582-38.664 93.336s-58.328 38.664-93.336 38.664h-342c-35.012 0-68.586-13.91-93.34-38.664-24.754-24.754-38.66-58.328-38.66-93.336v-573.6h606z"/>
  <path d="m435.6 879.6c6.3633 0 12.469-2.5312 16.969-7.0312s7.0312-10.605 7.0312-16.969v-408c0-8.5742-4.5742-16.5-12-20.785-7.4258-4.2891-16.574-4.2891-24 0-7.4258 4.2852-12 12.211-12 20.785v408c0 6.3633 2.5273 12.469 7.0273 16.969s10.605 7.0312 16.973 7.0312z"/>
  <path d="m600 879.6c6.3633 0 12.469-2.5312 16.969-7.0312 4.5039-4.5 7.0312-10.605 7.0312-16.969v-408c0-8.5742-4.5742-16.5-12-20.785-7.4258-4.2891-16.574-4.2891-24 0-7.4258 4.2852-12 12.211-12 20.785v408c0 6.3633 2.5273 12.469 7.0312 16.969 4.5 4.5 10.605 7.0312 16.969 7.0312z"/>
  <path d="m764.4 879.6c6.3672 0 12.473-2.5312 16.973-7.0312s7.0273-10.605 7.0273-16.969v-408c0-8.5742-4.5742-16.5-12-20.785-7.4258-4.2891-16.574-4.2891-24 0-7.4258 4.2852-12 12.211-12 20.785v408c0 6.3633 2.5312 12.469 7.0312 16.969s10.605 7.0312 16.969 7.0312z"/>
 </g>
</svg>
